<?xml version="1.0" standalone="no"?>
<!DOCTYPE svg PUBLIC "-//W3C//DTD SVG 20010904//EN"
 "http://www.w3.org/TR/2001/REC-SVG-20010904/DTD/svg10.dtd">
<svg version="1.0" xmlns="http://www.w3.org/2000/svg"
 width="900.000000pt" height="720.000000pt" viewBox="0 0 900.000000 720.000000"
 preserveAspectRatio="xMidYMid meet">

<g transform="translate(0.000000,720.000000) scale(0.100000,-0.100000)"
fill="#000000" stroke="none">
<path d="M1697 6310 c-48 -15 -138 -89 -154 -128 -20 -49 -4 -101 43 -141 41
-33 58 -34 472 -46 l192 -6 0 25 c0 14 -5 28 -11 32 -6 3 -61 5 -122 4 -168
-4 -287 0 -287 11 0 4 -35 9 -77 11 -45 3 -79 10 -81 17 -6 17 -49 13 -56 -5
-4 -10 -2 -13 7 -8 7 5 7 1 -2 -10 -13 -16 -16 -15 -37 10 -34 39 -38 60 -17
102 34 70 45 72 414 72 190 0 350 -4 385 -11 143 -26 264 -118 325 -247 25
-51 41 -72 57 -77 35 -9 23 -27 -39 -58 -72 -36 -173 -56 -201 -38 -17 11 -22
10 -35 -8 -8 -12 -22 -21 -31 -21 -29 -1 14 -21 46 -22 37 -1 202 41 229 58
29 18 30 18 37 -8 6 -23 7 -23 21 -4 8 11 15 35 15 53 0 24 7 37 25 49 32 21
35 73 5 81 -11 3 -35 34 -56 71 -73 129 -178 205 -327 236 -61 13 -141 16
-394 15 -175 0 -331 -5 -346 -9z m768 -35 c33 -9 80 -26 104 -38 63 -31 142
-115 176 -186 23 -48 36 -62 58 -67 32 -8 35 -29 6 -44 -31 -17 -44 -7 -72 54
-48 103 -160 202 -283 248 -56 21 -77 22 -428 26 -230 2 -365 7 -355 13 8 5
173 9 374 9 294 0 372 -3 420 -15z"/>
<path d="M2253 6183 c9 -2 25 -2 35 0 9 3 1 5 -18 5 -19 0 -27 -2 -17 -5z"/>
<path d="M2315 6180 c-3 -5 -1 -10 4 -10 6 0 11 5 11 10 0 6 -2 10 -4 10 -3 0
-8 -4 -11 -10z"/>
<path d="M2356 6171 c-3 -5 7 -12 23 -16 45 -10 128 -77 214 -173 44 -48 86
-91 94 -96 41 -23 -22 106 -84 175 -54 59 -230 138 -247 110z"/>
<path d="M2270 6029 c0 -4 6 -10 13 -12 7 -3 4 -6 -7 -6 -15 -1 -16 -4 -6 -16
7 -9 15 -13 18 -11 9 10 100 -44 126 -75 l27 -32 -21 -19 c-21 -19 -28 -78
-10 -78 6 0 8 10 4 24 -4 19 0 27 16 36 12 7 31 10 41 7 10 -3 17 -1 13 4 -3
5 9 9 26 9 29 0 30 1 16 16 -9 8 -14 20 -11 25 4 5 -16 31 -43 58 -37 37 -60
51 -88 55 -22 4 -56 10 -76 15 -21 4 -38 5 -38 0z"/>
<path d="M2712 5780 c-8 -20 -8 -47 -2 -79 5 -26 12 -81 15 -122 9 -111 24
-205 45 -294 10 -44 22 -101 25 -127 5 -34 11 -45 21 -41 19 7 18 -14 -1 -25
-13 -7 -14 -14 -5 -36 5 -15 10 -44 11 -64 0 -20 9 -80 19 -132 11 -52 18 -78
17 -58 -4 85 11 36 37 -125 15 -95 47 -293 71 -442 24 -148 63 -385 85 -525
23 -140 57 -340 76 -445 19 -104 37 -221 39 -258 10 -136 60 -240 124 -253 14
-2 38 -9 53 -13 16 -5 57 -5 95 0 38 4 815 8 1729 9 l1661 0 48 -25 c27 -13
51 -22 55 -19 3 3 -13 21 -35 39 -35 30 -33 44 3 21 29 -18 21 3 -13 32 -39
35 -42 52 -25 143 5 30 32 196 60 369 28 173 66 412 85 530 19 118 39 249 44
290 6 41 26 167 45 279 20 111 35 206 34 210 -1 3 2 22 6 41 3 19 8 51 11 70
2 19 24 155 49 302 26 147 46 272 46 277 0 6 16 25 36 43 52 47 64 77 63 153
-1 36 -4 64 -7 61 -2 -3 -20 8 -38 24 -18 16 -50 34 -71 39 -54 15 -4283 15
-4337 0 -22 -6 -53 -24 -69 -40 -16 -17 -31 -29 -32 -27 -2 2 3 21 10 43 19
54 63 92 117 100 24 3 1006 5 2183 3 2057 -3 2141 -4 2167 -21 15 -10 36 -33
47 -50 25 -38 28 -27 4 13 -9 15 -33 38 -54 49 l-37 21 -2174 -2 -2174 -3 -42
-27 c-31 -21 -44 -38 -53 -70 -11 -41 -12 -42 -19 -16 -4 14 -11 62 -15 105
-8 96 -18 117 -33 73z m4522 -174 c45 -19 85 -64 92 -104 7 -39 0 -50 -20 -32
-12 9 -485 12 -2238 11 -1380 0 -2226 4 -2233 9 -8 7 -16 1 -25 -18 l-14 -27
-4 29 c-7 55 36 118 94 136 16 4 993 9 2172 9 1807 1 2148 -1 2176 -13z m-5
-245 c8 -5 9 -11 3 -15 -5 -3 -987 -5 -2180 -3 -1737 2 -2174 5 -2184 15 -10
10 408 12 2167 12 1199 0 2186 -4 2194 -9z m-51 -175 c-5 -20 -4 -32 4 -37 6
-4 8 -14 3 -25 -4 -11 -7 -29 -6 -41 1 -11 -3 -24 -9 -28 -5 -3 -8 -11 -4 -16
3 -6 3 -18 -1 -27 -4 -9 -9 -33 -11 -52 -2 -19 -5 -46 -8 -60 -3 -14 -8 -43
-11 -65 -3 -22 -13 -46 -23 -54 -12 -9 -14 -15 -4 -18 20 -8 14 -31 -10 -39
-20 -6 -20 -8 -5 -19 22 -16 22 -34 0 -51 -15 -11 -16 -15 -4 -23 11 -7 10
-11 -7 -22 -19 -12 -19 -14 -4 -25 15 -11 15 -14 1 -31 -19 -22 -23 -63 -6
-63 7 0 6 -4 -3 -9 -8 -6 -17 -8 -21 -5 -4 2 -5 -4 -2 -14 2 -11 -3 -27 -13
-36 -12 -13 -14 -20 -5 -25 7 -5 3 -12 -14 -21 -27 -14 -31 -25 -15 -35 6 -4
0 -15 -15 -27 -25 -19 -34 -48 -15 -48 12 0 -6 -34 -33 -64 -10 -12 -23 -28
-27 -37 -8 -13 -5 -15 18 -11 l27 5 -33 -37 c-18 -20 -30 -41 -27 -46 7 -12
-20 -6 -37 8 -23 19 -88 39 -148 45 -109 12 -384 12 -406 -1 -30 -16 -75 -18
-100 -4 -13 7 -92 11 -226 10 -125 0 -213 4 -225 10 -12 7 -58 9 -119 6 -54
-3 -196 -9 -314 -13 -141 -5 -228 -12 -253 -21 -31 -12 -45 -12 -85 -1 -29 8
-124 15 -247 17 -110 3 -213 9 -229 14 -23 8 -27 7 -22 -5 3 -8 1 -15 -5 -15
-5 0 -12 7 -16 15 -8 22 -83 18 -83 -4 -1 -13 -3 -13 -14 2 -11 14 -15 15 -20
5 -5 -11 -7 -11 -12 0 -5 10 -9 10 -20 1 -18 -15 -385 -13 -395 2 -3 6 -24 9
-45 7 -29 -2 -41 -9 -49 -26 -7 -17 -15 -21 -30 -17 -54 16 -84 18 -275 22
-124 2 -213 0 -225 -6 -75 -37 -135 -44 -135 -15 0 16 35 54 50 54 6 0 10 7
10 15 0 21 -17 19 -30 -5 -17 -31 -38 -24 -46 16 -4 19 -13 38 -20 41 -8 3
-15 13 -15 22 -1 9 -4 3 -8 -14 -6 -27 -8 -23 -24 40 -9 38 -24 73 -32 78 -8
4 -15 16 -15 26 0 9 -6 37 -14 62 -49 157 -81 301 -121 549 -35 217 -34 211
-12 233 19 19 53 19 2135 19 1164 0 2125 4 2137 8 16 6 21 3 26 -19 3 -14 2
-39 -3 -55z m-4360 -36 c1 -23 0 -23 -8 -5 -5 11 -8 36 -8 55 l0 35 8 -30 c4
-16 8 -41 8 -55z m15 -90 c3 -11 1 -20 -4 -20 -5 0 -9 9 -9 20 0 11 2 20 4 20
2 0 6 -9 9 -20z m4 -67 c-3 -10 -5 -4 -5 12 0 17 2 24 5 18 2 -7 2 -21 0 -30z
m10 -55 c-3 -8 -6 -5 -6 6 -1 11 2 17 5 13 3 -3 4 -12 1 -19z m10 -60 c-3 -8
-6 -5 -6 6 -1 11 2 17 5 13 3 -3 4 -12 1 -19z m260 -725 c-3 -10 -5 -4 -5 12
0 17 2 24 5 18 2 -7 2 -21 0 -30z m1313 -18 c0 -8 -7 -15 -15 -15 -16 0 -20
12 -8 23 11 12 23 8 23 -8z m1300 11 c0 -3 -4 -8 -10 -11 -5 -3 -10 -1 -10 4
0 6 5 11 10 11 6 0 10 -2 10 -4z m-78 -21 c0 -5 -5 -11 -11 -13 -6 -2 -11 4
-11 13 0 9 5 15 11 13 6 -2 11 -8 11 -13z m-1945 -51 c-3 -3 -12 -4 -19 -1 -8
3 -5 6 6 6 11 1 17 -2 13 -5z m800 -16 c-3 -8 -6 -5 -6 6 -1 11 2 17 5 13 3
-3 4 -12 1 -19z m1053 12 c0 -5 -4 -10 -10 -10 -5 0 -10 5 -10 10 0 6 5 10 10
10 6 0 10 -4 10 -10z m377 -30 l196 0 -7 -32 c-4 -18 -16 -91 -27 -162 -11
-71 -22 -133 -25 -138 -6 -10 -361 -11 -367 0 -3 4 -1 54 4 112 4 58 9 138 10
179 1 50 5 68 11 57 8 -14 34 -16 205 -16z m-1593 -263 l7 -77 -188 2 -188 3
-12 80 c-18 115 -19 123 -28 193 l-8 62 197 0 c149 0 196 3 197 13 1 6 5 -35
10 -93 4 -58 10 -140 13 -183z m1197 107 c-6 -87 -11 -164 -11 -171 0 -10 -48
-13 -215 -13 l-215 0 0 170 0 170 223 2 c122 2 223 2 225 2 2 -1 -2 -73 -7
-160z m-1803 81 c6 -38 14 -90 16 -115 2 -25 7 -69 11 -97 l8 -53 -185 0 -185
0 -12 93 c-19 147 -24 214 -17 232 5 14 26 16 178 13 l173 -3 13 -70z m1202
-95 l0 -170 -204 0 c-113 0 -207 4 -210 8 -3 5 -7 70 -10 144 -3 74 -8 146
-11 161 l-7 27 221 0 221 0 0 -170z m1759 156 c9 -11 8 -44 -4 -143 -9 -70
-18 -140 -21 -155 l-6 -28 -194 0 c-107 0 -194 3 -194 8 0 12 42 306 46 320 5
19 357 17 373 -2z m111 -395 c0 -5 -24 -12 -52 -16 -29 -3 -823 -4 -1765 -3
-1353 2 -1715 6 -1725 16 -10 9 343 12 1765 12 1086 0 1777 -4 1777 -9z m-746
-143 c-5 -7 -9 -20 -11 -27 -1 -8 -9 -44 -17 -80 -8 -37 -20 -110 -27 -164
-11 -90 -14 -99 -36 -108 -28 -10 -148 -12 -246 -2 l-69 6 7 46 c4 25 9 102
11 171 2 69 3 130 4 137 0 9 44 12 175 10 153 -2 176 0 191 15 20 19 31 17 18
-4z m-1871 -11 l173 -2 11 -180 c6 -99 9 -182 7 -184 -7 -8 -300 -11 -312 -3
-11 8 -42 146 -43 192 0 8 -4 35 -9 60 -19 97 -22 133 -11 126 6 -4 89 -8 184
-9z m-370 -125 c28 -207 32 -266 18 -257 -7 4 -83 8 -168 9 l-155 1 -28 31
c-23 26 -30 47 -39 120 -12 89 -30 190 -37 209 -3 6 64 11 194 12 l198 2 17
-127z m1117 -66 l0 -188 -180 4 c-98 2 -183 7 -186 11 -4 4 -11 64 -16 135 -4
70 -12 144 -17 166 -5 21 -8 43 -5 50 3 8 64 11 204 11 l200 0 0 -189z m574
170 c3 -11 1 -37 -4 -56 -6 -19 -13 -91 -18 -160 l-7 -125 -50 -7 c-27 -3
-114 -7 -192 -7 l-143 -1 0 183 c0 101 2 186 4 188 3 3 95 5 205 5 194 1 200
1 205 -20z m1136 9 c7 -8 7 -21 1 -36 -4 -13 -14 -71 -20 -128 -14 -121 -20
-138 -56 -171 -26 -25 -29 -25 -202 -25 l-175 -1 7 66 c4 36 13 101 21 145 8
44 14 96 14 116 0 20 3 38 6 41 3 3 93 6 199 6 144 0 197 -4 205 -13z m-3175
-434 c49 -13 3049 -15 3110 -2 22 5 52 12 68 16 44 12 33 -14 -15 -35 -41 -18
-104 -18 -1603 -18 -1639 0 -1599 -1 -1635 43 -17 20 -18 20 75 -4z m3375
-261 c0 -5 -2 -10 -4 -10 -3 0 -8 5 -11 10 -3 6 -1 10 4 10 6 0 11 -4 11 -10z"/>
<path d="M3880 5228 c-131 -9 -200 -22 -200 -38 0 -6 7 -10 15 -10 11 0 15
-12 16 -47 0 -27 8 -95 18 -153 10 -58 16 -107 14 -110 -2 -2 -120 -6 -262 -8
-207 -3 -260 -1 -267 9 -4 8 -9 43 -10 79 -2 36 -10 87 -19 113 -14 43 -14 49
0 77 9 17 21 33 28 35 24 7 346 12 357 5 7 -4 13 -36 15 -71 9 -171 18 -209
45 -202 24 6 27 23 4 23 -9 0 -14 7 -12 18 2 9 11 16 21 14 22 -4 12 25 -14
39 -13 7 -19 20 -19 42 1 18 -4 52 -9 77 -15 66 -14 70 17 71 19 0 11 5 -28
16 -40 12 -101 16 -225 17 -194 1 -225 -8 -251 -70 -15 -35 -10 -116 12 -241
5 -26 3 -31 -13 -30 -10 1 -18 -5 -18 -13 0 -30 104 -41 345 -35 124 2 250 4
280 2 56 -2 509 -1 610 1 30 1 325 -1 655 -4 417 -3 613 -2 643 6 27 7 53 22
69 40 23 28 63 41 63 21 0 -25 -15 -41 -39 -42 -17 -1 -6 -6 29 -15 75 -18
1140 -15 1183 4 30 13 32 39 3 34 -13 -2 -16 2 -12 15 13 45 26 142 26 194 0
116 -62 146 -284 136 -135 -6 -213 -23 -208 -46 7 -33 -21 -177 -39 -197 -23
-25 -24 -35 -4 -28 11 5 13 2 9 -10 -3 -8 -14 -18 -25 -21 -11 -4 -17 -11 -13
-16 3 -5 10 -6 16 -3 6 4 14 0 19 -7 4 -7 11 -10 15 -6 11 10 33 153 33 214 1
64 16 81 68 77 21 -2 99 -3 174 -3 l137 -1 12 -30 c9 -21 10 -45 4 -78 -4 -26
-9 -80 -10 -121 -1 -50 -6 -76 -15 -82 -16 -10 -458 -11 -506 -1 -35 8 -33 21
7 39 24 11 24 12 3 12 -22 1 -22 4 -17 64 3 34 10 79 15 99 5 21 7 49 3 63 -3
14 -1 31 5 39 7 8 8 16 4 19 -14 8 -75 16 -173 24 -132 11 -181 10 -288 -6
-113 -17 -119 -23 -132 -144 -12 -104 -21 -126 -64 -154 l-33 -21 4 141 c2 78
0 147 -4 154 -14 20 -245 43 -373 37 -262 -12 -312 -12 -460 -4 -165 9 -377
-3 -420 -23 -22 -11 -25 -20 -28 -72 -2 -33 2 -104 8 -159 11 -82 10 -100 -1
-107 -23 -14 -71 -10 -91 8 -17 15 -18 15 -18 0 0 -15 -23 -17 -229 -17 -151
0 -239 4 -258 12 -22 9 -24 12 -10 15 20 5 20 8 6 127 -15 130 -18 143 -30
125 -6 -10 -9 -7 -9 14 0 19 5 27 18 28 91 2 475 0 478 -4 3 -2 7 -44 9 -93 8
-156 12 -172 40 -170 28 1 30 11 14 53 -6 15 -15 70 -19 121 -5 51 -13 99 -19
106 -10 11 -125 31 -231 40 -19 1 -91 -1 -160 -6z m1265 -38 c33 -5 146 -10
250 -9 105 0 201 0 214 0 23 -1 23 -3 17 -63 -3 -35 -7 -102 -8 -150 -1 -48
-4 -92 -7 -97 -5 -7 -371 -19 -591 -21 -91 0 -550 12 -565 15 -19 4 -20 13
-22 160 -2 117 0 155 10 155 291 1 495 8 512 18 21 13 84 11 190 -8z m1138
-10 c21 0 22 -23 3 -53 -7 -12 -18 -67 -24 -122 -10 -85 -9 -102 4 -116 13
-15 12 -17 -17 -23 -39 -7 -464 -8 -471 0 -3 3 -2 22 3 42 5 20 11 87 15 147
4 61 10 115 14 120 7 9 121 10 473 5z"/>
<path d="M4944 5147 c-2 -7 -3 -69 -2 -137 l3 -125 78 0 77 -1 0 137 0 137
-75 1 c-54 1 -77 -3 -81 -12z m117 -24 c14 -16 20 -155 8 -168 -4 -3 -23 -9
-44 -12 -48 -8 -55 3 -55 94 0 52 4 76 16 87 20 21 58 20 75 -1z"/>
<path d="M3293 4793 c59 -2 154 -2 210 0 56 1 8 3 -108 3 -115 0 -161 -2 -102
-3z"/>
<path d="M3792 4795 c7 -8 459 -8 466 -1 3 4 -102 6 -233 6 -131 0 -236 -2
-233 -5z"/>
<path d="M4535 4791 c55 -3 170 -4 255 -1 131 5 115 6 -100 6 -150 0 -214 -2
-155 -5z"/>
<path d="M5102 4795 c3 -3 117 -5 253 -5 136 0 250 2 253 5 3 3 -111 5 -253 5
-142 0 -256 -2 -253 -5z"/>
<path d="M5908 4789 c62 -4 170 -4 240 0 117 7 108 8 -113 8 -209 0 -225 -1
-127 -8z"/>
<path d="M6548 4791 c56 -3 153 -3 215 0 83 4 56 5 -103 5 -148 0 -183 -1
-112 -5z"/>
<path d="M4460 4712 c0 -15 -5 -19 -20 -15 -22 6 -23 3 -20 -66 1 -28 -2 -41
-9 -37 -7 5 -9 -9 -7 -39 2 -26 -2 -51 -8 -58 -6 -7 -11 -22 -10 -34 1 -13 -1
-23 -3 -23 -2 0 -8 10 -13 23 -8 20 -9 18 -9 -12 -1 -19 -3 -32 -5 -30 -4 3
-27 177 -29 217 0 6 -4 12 -9 12 -5 0 -6 5 -3 10 3 6 -1 13 -9 16 -9 3 -16 15
-16 26 0 17 -5 19 -32 14 -77 -15 -246 -18 -339 -6 -85 11 -100 10 -121 -4
-14 -9 -27 -14 -29 -11 -3 3 -3 -17 0 -43 6 -47 1 -96 -17 -162 l-10 -35 -1
33 c-1 30 -2 32 -17 18 -8 -9 -21 -13 -27 -9 -8 5 -6 9 6 11 23 5 22 28 -2 44
-12 8 -22 30 -25 54 -9 63 -21 100 -30 86 -7 -11 8 -161 21 -217 2 -11 7 -48
10 -82 l5 -63 -155 0 c-86 0 -167 4 -181 10 -46 17 -69 72 -81 195 -2 17 -7
54 -10 83 l-8 52 192 0 191 0 0 26 c0 23 -3 25 -22 20 -42 -13 -193 -17 -291
-9 -130 12 -156 2 -159 -59 -5 -159 -5 -208 3 -208 14 0 11 -38 -3 -43 -16 -7
18 -36 87 -74 l50 -28 1730 0 1730 0 45 27 c90 53 95 63 98 206 1 70 0 136 -3
147 -6 30 -51 42 -125 36 -90 -8 -225 -7 -287 1 -41 6 -52 4 -57 -8 -3 -9 -4
-20 0 -25 3 -5 91 -9 195 -9 l189 0 -4 -22 c-3 -13 -13 -74 -22 -137 -14 -97
-21 -118 -45 -145 l-27 -31 -173 -3 -172 -3 7 53 c4 29 14 94 22 145 17 100
16 174 -3 180 -7 3 -14 -16 -19 -54 -8 -71 -15 -90 -46 -126 -25 -28 -42 -28
-31 1 4 10 2 13 -5 8 -14 -8 -15 2 -12 95 2 65 1 66 -30 79 -25 10 -47 10
-120 0 -85 -12 -232 -9 -332 6 -34 6 -36 4 -31 -15 4 -15 1 -21 -11 -21 -9 0
-16 -8 -16 -19 0 -11 -6 -26 -12 -33 -7 -7 -13 -23 -14 -35 -3 -107 -6 -127
-14 -108 -7 17 -9 15 -9 -12 -1 -39 -21 -45 -21 -7 0 14 -4 23 -10 19 -6 -4
-10 15 -10 49 0 31 -4 56 -8 56 -5 0 -8 24 -8 53 1 47 -1 52 -22 55 -16 3 -22
8 -18 18 4 11 1 14 -12 10 -61 -18 -158 -26 -308 -26 -136 0 -176 -3 -187 -14
-8 -9 -19 -55 -25 -113 -6 -54 -16 -99 -22 -101 -5 -2 -10 -18 -11 -35 l-1
-32 -9 33 c-5 18 -14 30 -19 27 -6 -4 -10 0 -11 7 -4 115 -13 187 -25 206 -14
21 -19 22 -197 22 -160 0 -224 6 -289 26 -13 4 -18 0 -18 -14z m-167 -197 c4
-85 8 -160 9 -167 2 -10 -40 -14 -204 -16 l-207 -2 -6 32 c-3 18 -14 87 -25
153 -10 66 -22 129 -25 140 -6 20 -2 20 223 17 l229 -3 6 -154z m644 152 c1
-2 3 -77 4 -167 l1 -165 -229 -3 -230 -2 -11 152 c-7 84 -12 162 -12 173 0 20
6 20 237 17 131 -2 238 -4 240 -5z m649 -89 c-3 -57 -9 -136 -13 -175 l-6 -73
-233 0 -234 0 0 170 0 170 243 3 c133 1 244 3 246 5 2 1 1 -44 -3 -100z m632
65 c-5 -21 -19 -99 -32 -173 l-22 -135 -208 -3 -208 -2 9 127 c4 71 8 147 8
170 l-1 43 231 3 c126 1 231 3 231 5 1 1 -2 -15 -8 -35z m102 -163 c0 -5 -2
-10 -4 -10 -3 0 -8 5 -11 10 -3 6 -1 10 4 10 6 0 11 -4 11 -10z m-2573 -92
c-3 -8 -6 -5 -6 6 -1 11 2 17 5 13 3 -3 4 -12 1 -19z m1941 -59 c-18 -11 -32
6 -24 28 7 17 8 17 22 -1 11 -16 11 -21 2 -27z m609 19 c-3 -8 -6 -5 -6 6 -1
11 2 17 5 13 3 -3 4 -12 1 -19z m-2527 2 c0 -5 -4 -10 -10 -10 -5 0 -10 5 -10
10 0 6 5 10 10 10 6 0 10 -4 10 -10z m630 -10 c0 -5 -9 -10 -20 -10 -11 0 -20
5 -20 10 0 6 9 10 20 10 11 0 20 -4 20 -10z"/>
<path d="M5661 4514 c0 -11 3 -14 6 -6 3 7 2 16 -1 19 -3 4 -6 -2 -5 -13z"/>
<path d="M3130 4341 c0 -11 12 -34 27 -52 27 -31 27 -32 4 -24 -16 5 -21 4
-17 -4 4 -6 20 -11 35 -11 15 0 36 -9 46 -20 29 -32 114 -43 287 -38 105 4
163 10 173 18 21 17 144 17 155 0 6 -10 54 -14 188 -18 149 -4 194 -2 254 13
76 18 142 17 228 -4 82 -19 428 -11 415 9 -3 5 26 11 63 15 54 5 77 3 112 -12
39 -15 75 -18 259 -18 163 0 215 3 218 13 6 15 160 17 165 2 2 -5 62 -13 133
-16 144 -7 348 3 339 17 -3 5 21 10 53 10 73 2 86 0 95 -14 5 -8 67 -13 200
-14 106 -1 201 -4 211 -8 10 -4 21 -5 24 -1 4 3 -1 6 -10 6 -27 0 -20 17 10
25 35 8 55 24 47 37 -4 6 1 6 13 0 15 -8 20 -8 20 2 0 7 10 26 23 43 13 19 20
38 16 48 -5 14 -12 11 -48 -18 -91 -73 84 -67 -1838 -67 -1889 0 -1756 -4
-1837 57 -21 15 -39 31 -41 36 -7 15 -22 6 -22 -12z"/>
<path d="M5658 4203 c7 -3 16 -2 19 1 4 3 -2 6 -13 5 -11 0 -14 -3 -6 -6z"/>
<path d="M6578 4173 c12 -2 30 -2 40 0 9 3 -1 5 -23 4 -22 0 -30 -2 -17 -4z"/>
<path d="M6712 4165 c-11 -13 -8 -15 20 -14 20 1 25 3 14 6 -15 4 -16 7 -5 14
12 7 12 9 -1 8 -8 0 -21 -6 -28 -14z"/>
<path d="M6210 4139 c0 -11 27 -12 34 -1 2 4 -4 9 -15 9 -10 1 -19 -2 -19 -8z"/>
<path d="M2501 5704 c0 -37 46 -295 48 -271 1 23 -39 290 -45 296 -2 2 -4 -9
-3 -25z"/>
<path d="M2552 5385 c0 -16 2 -22 5 -12 2 9 2 23 0 30 -3 6 -5 -1 -5 -18z"/>
<path d="M2562 5325 c0 -16 2 -22 5 -12 2 9 2 23 0 30 -3 6 -5 -1 -5 -18z"/>
<path d="M2572 5265 c0 -16 2 -22 5 -12 2 9 2 23 0 30 -3 6 -5 -1 -5 -18z"/>
<path d="M2587 5170 c6 -73 60 -394 62 -369 1 20 -34 257 -54 359 l-14 75 6
-65z"/>
<path d="M2652 4755 c0 -16 2 -22 5 -12 2 9 2 23 0 30 -3 6 -5 -1 -5 -18z"/>
<path d="M2861 4745 c0 -11 4 -38 8 -60 l9 -40 0 40 c0 22 -3 49 -8 60 l-9 20
0 -20z"/>
<path d="M2662 4695 c0 -16 2 -22 5 -12 2 9 2 23 0 30 -3 6 -5 -1 -5 -18z"/>
<path d="M2672 4635 c0 -16 2 -22 5 -12 2 9 2 23 0 30 -3 6 -5 -1 -5 -18z"/>
<path d="M2882 4610 c0 -14 2 -19 5 -12 2 6 2 18 0 25 -3 6 -5 1 -5 -13z"/>
<path d="M2682 4570 c0 -19 12 -107 28 -195 16 -88 27 -133 24 -100 -8 90 -52
335 -52 295z"/>
<path d="M2892 4560 c0 -14 2 -19 5 -12 2 6 2 18 0 25 -3 6 -5 1 -5 -13z"/>
<path d="M2902 4500 c0 -14 2 -19 5 -12 2 6 2 18 0 25 -3 6 -5 1 -5 -13z"/>
<path d="M2906 4445 c4 -8 8 -15 10 -15 2 0 4 7 4 15 0 8 -4 15 -10 15 -5 0
-7 -7 -4 -15z"/>
<path d="M2921 4384 c0 -11 3 -14 6 -6 3 7 2 16 -1 19 -3 4 -6 -2 -5 -13z"/>
<path d="M2937 4255 c7 -49 13 -58 13 -19 0 16 -5 36 -10 44 -6 10 -7 2 -3
-25z"/>
<path d="M2741 4201 c-1 -7 5 -55 13 -105 8 -50 27 -170 42 -266 15 -96 29
-169 31 -163 2 6 -12 116 -32 244 -36 230 -52 318 -54 290z"/>
<path d="M2952 4170 c0 -14 2 -19 5 -12 2 6 2 18 0 25 -3 6 -5 1 -5 -13z"/>
<path d="M2832 3625 c0 -16 2 -22 5 -12 2 9 2 23 0 30 -3 6 -5 -1 -5 -18z"/>
<path d="M2842 3565 c0 -16 2 -22 5 -12 2 9 2 23 0 30 -3 6 -5 -1 -5 -18z"/>
<path d="M2856 3475 c7 -88 49 -334 51 -305 2 14 -10 102 -27 195 -16 94 -27
143 -24 110z"/>
<path d="M2912 3115 c0 -16 2 -22 5 -12 2 9 2 23 0 30 -3 6 -5 -1 -5 -18z"/>
<path d="M2922 3055 c0 -16 2 -22 5 -12 2 9 2 23 0 30 -3 6 -5 -1 -5 -18z"/>
<path d="M2936 2965 c7 -74 51 -187 103 -263 36 -53 144 -142 157 -129 3 3
-21 23 -53 45 -32 22 -67 53 -79 68 -40 55 -105 204 -119 271 l-15 68 6 -60z"/>
<path d="M2897 2571 c-105 -112 -141 -261 -97 -403 20 -66 92 -188 110 -188
15 0 14 4 -32 104 -37 80 -42 100 -42 167 -1 71 2 82 46 170 26 52 63 113 83
137 33 38 36 47 11 43 -4 -1 -14 3 -21 9 -9 7 -24 -3 -58 -39z"/>
<path d="M6913 2564 c-13 -15 -28 -22 -34 -18 -8 4 -9 3 -5 -4 9 -16 42 1 56
28 14 27 10 25 -17 -6z"/>
<path d="M3240 2565 c0 -18 19 -40 26 -32 4 4 0 15 -9 24 -9 10 -17 13 -17 8z"/>
<path d="M3375 2522 c11 -4 796 -5 1745 -2 l1725 5 -1745 2 c-960 1 -1736 -1
-1725 -5z"/>
<path d="M3083 2466 c-96 -125 -51 -326 89 -403 31 -17 112 -18 1508 -21 811
-1 1677 -1 1923 0 l449 3 -20 23 c-11 12 -24 22 -29 22 -6 0 -16 7 -23 15 -11
13 -242 15 -1884 17 -1812 3 -1873 4 -1901 22 -136 86 -161 208 -70 332 12 17
13 23 3 27 -7 2 -27 -14 -45 -37z"/>
<path d="M7080 2002 c0 -16 44 -56 48 -43 2 7 -4 21 -14 32 -18 20 -34 25 -34
11z"/>
<path d="M3453 1848 c3 -7 21 -50 40 -94 l35 -82 -43 -42 c-90 -88 -141 -225
-132 -354 6 -99 33 -172 91 -250 55 -73 172 -158 221 -161 6 0 16 -5 24 -10
10 -5 16 -4 19 3 2 8 9 7 20 -4 13 -14 32 -16 105 -11 49 2 92 9 96 13 3 5 18
10 33 11 33 2 186 86 238 130 117 100 176 298 136 450 -32 120 -125 247 -215
293 -32 16 -40 26 -43 52 l-3 33 -260 5 c-175 4 -269 9 -288 18 -39 17 -50 15
-43 -5 6 -17 5 -17 -8 0 -15 20 -31 23 -23 5z m479 -69 c51 -13 54 -30 34
-197 -30 -262 -58 -320 -162 -337 -37 -6 -44 -3 -69 23 -25 27 -85 147 -148
297 -11 28 -25 56 -31 64 -10 12 -26 64 -42 131 l-5 25 193 2 c106 1 210 -2
230 -8z m-268 -565 c70 -111 228 -111 299 -1 15 23 27 35 27 29 0 -9 7 -8 24
3 22 15 24 14 29 -5 16 -63 -59 -159 -145 -185 -151 -44 -287 25 -319 163 -4
19 -3 32 3 32 6 0 8 6 5 14 -13 32 51 -9 77 -50z m56 -178 c117 -35 216 -12
297 70 56 56 59 54 11 -8 -93 -120 -317 -124 -422 -8 -60 66 -58 80 2 20 45
-45 71 -62 112 -74z"/>
<path d="M5969 1840 c5 -14 23 -56 40 -94 l29 -70 -49 -54 c-133 -145 -165
-335 -86 -506 37 -79 96 -151 163 -197 55 -37 147 -74 152 -60 2 7 9 5 19 -4
10 -10 35 -15 80 -15 173 0 375 106 464 243 125 193 99 426 -65 591 -28 28
-71 60 -94 70 -37 17 -42 23 -42 51 0 35 -17 49 -41 34 -9 -5 -10 -9 -2 -9 13
0 26 -32 28 -73 2 -34 -8 -42 -35 -25 -16 10 -20 23 -20 63 l0 50 -217 0
c-133 0 -235 4 -261 12 -36 9 -41 9 -31 -3 16 -20 -1 -17 -23 3 -18 16 -19 16
-9 -7z m292 -54 c101 4 157 3 181 -5 33 -11 36 -15 41 -61 8 -64 -8 -213 -33
-315 -22 -88 -60 -154 -87 -153 -10 1 -35 -2 -56 -6 -34 -6 -41 -4 -66 23 -15
16 -36 51 -46 78 -15 40 -61 141 -130 288 -15 33 -45 132 -45 151 0 8 12 9 48
2 26 -5 113 -6 193 -2z m-127 -529 c5 -1 23 -20 40 -41 49 -62 79 -79 143 -84
51 -3 64 0 106 27 26 17 47 35 47 41 0 9 72 60 85 60 12 0 3 -58 -14 -96 -86
-190 -429 -145 -449 59 -4 46 -3 50 14 43 10 -4 23 -8 28 -9z m59 -204 c67
-34 147 -40 222 -19 46 14 69 29 113 73 34 34 49 44 38 27 -33 -51 -59 -74
-115 -101 -130 -64 -309 -14 -368 102 -13 25 -9 23 22 -13 20 -23 60 -54 88
-69z"/>
<path d="M7055 1850 c-3 -5 1 -10 9 -10 9 0 16 5 16 10 0 6 -4 10 -9 10 -6 0
-13 -4 -16 -10z"/>
<path d="M3305 1840 c3 -5 29 -10 56 -10 31 0 48 4 44 10 -3 6 -29 10 -56 10
-31 0 -48 -4 -44 -10z"/>
<path d="M5835 1840 c-15 -6 -6 -9 33 -9 33 -1 51 3 47 9 -7 12 -52 12 -80 0z"/>
</g>
</svg>
